<svg width="900" height="600" viewBox="0 0 900 600" fill="none" xmlns="http://www.w3.org/2000/svg">
<rect width="900" height="600" fill="#020202"/>
<path d="M106.5 382.5L111.5 490.5H175.5L179.5 469L151.5 471.5L155.5 382.5H106.5Z" fill="white"/>
<path fill-rule="evenodd" clip-rule="evenodd" d="M37 382H79.5L104 491H64.5L62.3484 483.254C62.1726 482.621 61.4443 482.327 60.8779 482.66L45 492L42.5 486.5L40.0775 481.059C39.5 480.5 39.1799 479.744 38.5583 479.247L38.2635 479.011C37.683 478.546 36.8167 478.855 36.661 479.582L35.5 485L34.5 491H13L26.5 437L37 382ZM44.5 456.5L49.5 443L55 456.5L58.5 466.5L53.6516 468.015C51.5565 468.67 49.3977 469.1 47.2117 469.299L39.5 470L44.5 456.5Z" fill="white"/>
<path fill-rule="evenodd" clip-rule="evenodd" d="M806 382H848.5L873 491H833.5L831.348 483.254C831.173 482.621 830.444 482.327 829.878 482.66L814 492L811.5 486.5L809.077 481.059C808.5 480.5 808.18 479.744 807.558 479.247L807.263 479.011C806.683 478.546 805.817 478.855 805.661 479.582L804.5 485L803.5 491H782L795.5 437L806 382ZM813.5 456.5L818.5 443L824 456.5L827.5 466.5L822.652 468.015C820.556 468.67 818.398 469.1 816.212 469.299L808.5 470L813.5 456.5Z" fill="#EC1824"/>
<path fill-rule="evenodd" clip-rule="evenodd" d="M454 382L458.5 491.5H498V468.5H508.5L513.285 467.352C525.958 464.31 536.357 455.289 541.158 443.172C543.041 438.421 544.153 433.4 544.453 428.298L544.627 425.339C545.19 415.771 542.272 406.322 536.411 398.738C531.275 392.091 524.127 387.285 516.034 385.037L508.584 382.968C503.887 381.663 499.024 381.052 494.149 381.155L454 382ZM499.5 450.5V426H505.281C508.848 426 512.173 427.804 514.117 430.795C516.244 434.068 516.678 438.192 515.307 441.847C513.884 445.643 510.563 448.451 506.577 449.189L499.5 450.5Z" fill="#EC1824"/>
<path d="M551 383H599L594.5 491.5H555L551 383Z" fill="#EC1824"/>
<path d="M604.5 381V425L626.994 422.188C627.707 422.099 628.278 422.768 628.079 423.458L609 489.5H673L681 465L668.5 466.5L653.586 466.952C652.851 466.974 652.344 466.221 652.641 465.548L690 381H604.5Z" fill="#EC1824"/>
<path d="M274 383L256.5 435.5L240 492H214L200.5 442L180 383H231.5L234.5 405L239.5 425L245 404.5L249.5 383H274Z" fill="white"/>
<path d="M278 383L282 492H322L326 383H278Z" fill="white"/>
<path d="M333 383L336 437L338 492H362V456.443C362 455.63 362.919 455.157 363.581 455.629L414.5 492L419 383H393L393.45 404.618C393.469 405.504 392.411 405.975 391.765 405.367L368 383H333Z" fill="white"/>
<path d="M696.5 381.5V425.5L718.994 422.688C719.707 422.599 720.278 423.268 720.079 423.958L701 490H765L773 465.5L760.5 467L745.586 467.452C744.851 467.474 744.344 466.721 744.641 466.048L782 381.5H696.5Z" fill="#EC1824"/>
<path d="M457.392 518.824C457.488 517.336 458.056 516.176 459.096 515.344C460.152 514.512 461.496 514.096 463.128 514.096C464.248 514.096 465.216 514.296 466.032 514.696C466.848 515.096 467.464 515.64 467.88 516.328C468.296 517.016 468.504 517.792 468.504 518.656C468.504 519.648 468.24 520.496 467.712 521.2C467.184 521.904 466.552 522.376 465.816 522.616V522.712C466.76 523 467.496 523.528 468.024 524.296C468.552 525.048 468.816 526.016 468.816 527.2C468.816 528.144 468.6 528.984 468.168 529.72C467.736 530.456 467.096 531.04 466.248 531.472C465.4 531.888 464.384 532.096 463.2 532.096C461.472 532.096 460.048 531.656 458.928 530.776C457.824 529.88 457.232 528.6 457.152 526.936H459.792C459.856 527.784 460.184 528.48 460.776 529.024C461.368 529.552 462.168 529.816 463.176 529.816C464.152 529.816 464.904 529.552 465.432 529.024C465.96 528.48 466.224 527.784 466.224 526.936C466.224 525.816 465.864 525.024 465.144 524.56C464.44 524.08 463.352 523.84 461.88 523.84H461.256V521.584H461.904C463.2 521.568 464.184 521.352 464.856 520.936C465.544 520.52 465.888 519.864 465.888 518.968C465.888 518.2 465.64 517.592 465.144 517.144C464.648 516.68 463.944 516.448 463.032 516.448C462.136 516.448 461.44 516.68 460.944 517.144C460.448 517.592 460.152 518.152 460.056 518.824H457.392ZM471.69 523.024C471.69 520.256 472.154 518.096 473.082 516.544C474.026 514.976 475.642 514.192 477.93 514.192C480.218 514.192 481.826 514.976 482.754 516.544C483.698 518.096 484.17 520.256 484.17 523.024C484.17 525.824 483.698 528.016 482.754 529.6C481.826 531.168 480.218 531.952 477.93 531.952C475.642 531.952 474.026 531.168 473.082 529.6C472.154 528.016 471.69 525.824 471.69 523.024ZM481.482 523.024C481.482 521.728 481.394 520.632 481.218 519.736C481.058 518.84 480.722 518.112 480.21 517.552C479.698 516.976 478.938 516.688 477.93 516.688C476.922 516.688 476.162 516.976 475.65 517.552C475.138 518.112 474.794 518.84 474.618 519.736C474.458 520.632 474.378 521.728 474.378 523.024C474.378 524.368 474.458 525.496 474.618 526.408C474.778 527.32 475.114 528.056 475.626 528.616C476.154 529.176 476.922 529.456 477.93 529.456C478.938 529.456 479.698 529.176 480.21 528.616C480.738 528.056 481.082 527.32 481.242 526.408C481.402 525.496 481.482 524.368 481.482 523.024ZM487.065 523.024C487.065 520.256 487.529 518.096 488.457 516.544C489.401 514.976 491.017 514.192 493.305 514.192C495.593 514.192 497.201 514.976 498.129 516.544C499.073 518.096 499.545 520.256 499.545 523.024C499.545 525.824 499.073 528.016 498.129 529.6C497.201 531.168 495.593 531.952 493.305 531.952C491.017 531.952 489.401 531.168 488.457 529.6C487.529 528.016 487.065 525.824 487.065 523.024ZM496.857 523.024C496.857 521.728 496.769 520.632 496.593 519.736C496.433 518.84 496.097 518.112 495.585 517.552C495.073 516.976 494.313 516.688 493.305 516.688C492.297 516.688 491.537 516.976 491.025 517.552C490.513 518.112 490.169 518.84 489.993 519.736C489.833 520.632 489.753 521.728 489.753 523.024C489.753 524.368 489.833 525.496 489.993 526.408C490.153 527.32 490.489 528.056 491.001 528.616C491.529 529.176 492.297 529.456 493.305 529.456C494.313 529.456 495.073 529.176 495.585 528.616C496.113 528.056 496.457 527.32 496.617 526.408C496.777 525.496 496.857 524.368 496.857 523.024ZM502.44 523.024C502.44 520.256 502.904 518.096 503.832 516.544C504.776 514.976 506.392 514.192 508.68 514.192C510.968 514.192 512.576 514.976 513.504 516.544C514.448 518.096 514.92 520.256 514.92 523.024C514.92 525.824 514.448 528.016 513.504 529.6C512.576 531.168 510.968 531.952 508.68 531.952C506.392 531.952 504.776 531.168 503.832 529.6C502.904 528.016 502.44 525.824 502.44 523.024ZM512.232 523.024C512.232 521.728 512.144 520.632 511.968 519.736C511.808 518.84 511.472 518.112 510.96 517.552C510.448 516.976 509.688 516.688 508.68 516.688C507.672 516.688 506.912 516.976 506.4 517.552C505.888 518.112 505.544 518.84 505.368 519.736C505.208 520.632 505.128 521.728 505.128 523.024C505.128 524.368 505.208 525.496 505.368 526.408C505.528 527.32 505.864 528.056 506.376 528.616C506.904 529.176 507.672 529.456 508.68 529.456C509.688 529.456 510.448 529.176 510.96 528.616C511.488 528.056 511.832 527.32 511.992 526.408C512.152 525.496 512.232 524.368 512.232 523.024Z" fill="white"/>
<path d="M729.536 517.528V522.424H735.296V524.656H729.536V529.768H736.016V532H726.8V515.296H736.016V517.528H729.536ZM755.202 515.32L748.938 532H745.77L739.482 515.32H742.41L747.354 529.192L752.322 515.32H755.202ZM766.538 532.168C764.986 532.168 763.554 531.808 762.242 531.088C760.946 530.352 759.914 529.336 759.146 528.04C758.394 526.728 758.018 525.256 758.018 523.624C758.018 521.992 758.394 520.528 759.146 519.232C759.914 517.936 760.946 516.928 762.242 516.208C763.554 515.472 764.986 515.104 766.538 515.104C768.106 515.104 769.538 515.472 770.834 516.208C772.146 516.928 773.178 517.936 773.93 519.232C774.682 520.528 775.058 521.992 775.058 523.624C775.058 525.256 774.682 526.728 773.93 528.04C773.178 529.336 772.146 530.352 770.834 531.088C769.538 531.808 768.106 532.168 766.538 532.168ZM766.538 529.792C767.642 529.792 768.626 529.544 769.49 529.048C770.354 528.536 771.026 527.816 771.506 526.888C772.002 525.944 772.25 524.856 772.25 523.624C772.25 522.392 772.002 521.312 771.506 520.384C771.026 519.456 770.354 518.744 769.49 518.248C768.626 517.752 767.642 517.504 766.538 517.504C765.434 517.504 764.45 517.752 763.586 518.248C762.722 518.744 762.042 519.456 761.546 520.384C761.066 521.312 760.826 522.392 760.826 523.624C760.826 524.856 761.066 525.944 761.546 526.888C762.042 527.816 762.722 528.536 763.586 529.048C764.45 529.544 765.434 529.792 766.538 529.792ZM781.926 529.792H787.566V532H779.19V515.32H781.926V529.792ZM794.006 515.32V525.952C794.006 527.216 794.334 528.168 794.99 528.808C795.662 529.448 796.59 529.768 797.774 529.768C798.974 529.768 799.902 529.448 800.558 528.808C801.23 528.168 801.566 527.216 801.566 525.952V515.32H804.302V525.904C804.302 527.264 804.006 528.416 803.414 529.36C802.822 530.304 802.03 531.008 801.038 531.472C800.046 531.936 798.95 532.168 797.75 532.168C796.55 532.168 795.454 531.936 794.462 531.472C793.486 531.008 792.71 530.304 792.134 529.36C791.558 528.416 791.27 527.264 791.27 525.904V515.32H794.006ZM820.081 515.32V517.552H815.641V532H812.905V517.552H808.441V515.32H820.081ZM827.028 515.32V532H824.292V515.32H827.028ZM839.668 532.168C838.116 532.168 836.684 531.808 835.372 531.088C834.076 530.352 833.044 529.336 832.276 528.04C831.524 526.728 831.148 525.256 831.148 523.624C831.148 521.992 831.524 520.528 832.276 519.232C833.044 517.936 834.076 516.928 835.372 516.208C836.684 515.472 838.116 515.104 839.668 515.104C841.236 515.104 842.668 515.472 843.964 516.208C845.276 516.928 846.308 517.936 847.06 519.232C847.812 520.528 848.188 521.992 848.188 523.624C848.188 525.256 847.812 526.728 847.06 528.04C846.308 529.336 845.276 530.352 843.964 531.088C842.668 531.808 841.236 532.168 839.668 532.168ZM839.668 529.792C840.772 529.792 841.756 529.544 842.62 529.048C843.484 528.536 844.156 527.816 844.636 526.888C845.132 525.944 845.38 524.856 845.38 523.624C845.38 522.392 845.132 521.312 844.636 520.384C844.156 519.456 843.484 518.744 842.62 518.248C841.756 517.752 840.772 517.504 839.668 517.504C838.564 517.504 837.58 517.752 836.716 518.248C835.852 518.744 835.172 519.456 834.676 520.384C834.196 521.312 833.956 522.392 833.956 523.624C833.956 524.856 834.196 525.944 834.676 526.888C835.172 527.816 835.852 528.536 836.716 529.048C837.58 529.544 838.564 529.792 839.668 529.792ZM866.024 532H863.288L855.056 519.544V532H852.32V515.296H855.056L863.288 527.728V515.296H866.024V532Z" fill="white"/>
<path d="M659.616 515.32V517.552H652.536V522.472H658.056V524.704H652.536V532H649.8V515.32H659.616ZM670.24 532.168C668.688 532.168 667.256 531.808 665.944 531.088C664.648 530.352 663.616 529.336 662.848 528.04C662.096 526.728 661.72 525.256 661.72 523.624C661.72 521.992 662.096 520.528 662.848 519.232C663.616 517.936 664.648 516.928 665.944 516.208C667.256 515.472 668.688 515.104 670.24 515.104C671.808 515.104 673.24 515.472 674.536 516.208C675.848 516.928 676.88 517.936 677.632 519.232C678.384 520.528 678.76 521.992 678.76 523.624C678.76 525.256 678.384 526.728 677.632 528.04C676.88 529.336 675.848 530.352 674.536 531.088C673.24 531.808 671.808 532.168 670.24 532.168ZM670.24 529.792C671.344 529.792 672.328 529.544 673.192 529.048C674.056 528.536 674.728 527.816 675.208 526.888C675.704 525.944 675.952 524.856 675.952 523.624C675.952 522.392 675.704 521.312 675.208 520.384C674.728 519.456 674.056 518.744 673.192 518.248C672.328 517.752 671.344 517.504 670.24 517.504C669.136 517.504 668.152 517.752 667.288 518.248C666.424 518.744 665.744 519.456 665.248 520.384C664.768 521.312 664.528 522.392 664.528 523.624C664.528 524.856 664.768 525.944 665.248 526.888C665.744 527.816 666.424 528.536 667.288 529.048C668.152 529.544 669.136 529.792 670.24 529.792ZM689.54 532.168C687.988 532.168 686.556 531.808 685.244 531.088C683.948 530.352 682.916 529.336 682.148 528.04C681.396 526.728 681.02 525.256 681.02 523.624C681.02 521.992 681.396 520.528 682.148 519.232C682.916 517.936 683.948 516.928 685.244 516.208C686.556 515.472 687.988 515.104 689.54 515.104C691.108 515.104 692.54 515.472 693.836 516.208C695.148 516.928 696.18 517.936 696.932 519.232C697.684 520.528 698.06 521.992 698.06 523.624C698.06 525.256 697.684 526.728 696.932 528.04C696.18 529.336 695.148 530.352 693.836 531.088C692.54 531.808 691.108 532.168 689.54 532.168ZM689.54 529.792C690.644 529.792 691.628 529.544 692.492 529.048C693.356 528.536 694.028 527.816 694.508 526.888C695.004 525.944 695.252 524.856 695.252 523.624C695.252 522.392 695.004 521.312 694.508 520.384C694.028 519.456 693.356 518.744 692.492 518.248C691.628 517.752 690.644 517.504 689.54 517.504C688.436 517.504 687.452 517.752 686.588 518.248C685.724 518.744 685.044 519.456 684.548 520.384C684.068 521.312 683.828 522.392 683.828 523.624C683.828 524.856 684.068 525.944 684.548 526.888C685.044 527.816 685.724 528.536 686.588 529.048C687.452 529.544 688.436 529.792 689.54 529.792ZM706.68 515.32C708.456 515.32 710.008 515.664 711.336 516.352C712.68 517.024 713.712 518 714.432 519.28C715.168 520.544 715.536 522.024 715.536 523.72C715.536 525.416 715.168 526.888 714.432 528.136C713.712 529.384 712.68 530.344 711.336 531.016C710.008 531.672 708.456 532 706.68 532H701.232V515.32H706.68ZM706.68 529.768C708.632 529.768 710.128 529.24 711.168 528.184C712.208 527.128 712.728 525.64 712.728 523.72C712.728 521.784 712.208 520.272 711.168 519.184C710.128 518.096 708.632 517.552 706.68 517.552H703.968V529.768H706.68Z" fill="white"/>
<path d="M617.408 532.168C615.856 532.168 614.424 531.808 613.112 531.088C611.816 530.352 610.784 529.336 610.016 528.04C609.264 526.728 608.888 525.256 608.888 523.624C608.888 521.992 609.264 520.528 610.016 519.232C610.784 517.936 611.816 516.928 613.112 516.208C614.424 515.472 615.856 515.104 617.408 515.104C618.976 515.104 620.408 515.472 621.704 516.208C623.016 516.928 624.048 517.936 624.8 519.232C625.552 520.528 625.928 521.992 625.928 523.624C625.928 525.256 625.552 526.728 624.8 528.04C624.048 529.336 623.016 530.352 621.704 531.088C620.408 531.808 618.976 532.168 617.408 532.168ZM617.408 529.792C618.512 529.792 619.496 529.544 620.36 529.048C621.224 528.536 621.896 527.816 622.376 526.888C622.872 525.944 623.12 524.856 623.12 523.624C623.12 522.392 622.872 521.312 622.376 520.384C621.896 519.456 621.224 518.744 620.36 518.248C619.496 517.752 618.512 517.504 617.408 517.504C616.304 517.504 615.32 517.752 614.456 518.248C613.592 518.744 612.912 519.456 612.416 520.384C611.936 521.312 611.696 522.392 611.696 523.624C611.696 524.856 611.936 525.944 612.416 526.888C612.912 527.816 613.592 528.536 614.456 529.048C615.32 529.544 616.304 529.792 617.408 529.792ZM639.396 515.32V517.552H632.316V522.472H637.836V524.704H632.316V532H629.58V515.32H639.396Z" fill="white"/>
<path d="M537.16 515.32L531.64 525.952V532H528.904V525.952L523.36 515.32H526.408L530.272 523.504L534.136 515.32H537.16ZM543.027 517.528V522.424H548.787V524.656H543.027V529.768H549.507V532H540.291V515.296H549.507V517.528H543.027ZM563.893 528.592H556.909L555.709 532H552.853L558.829 515.296H561.997L567.973 532H565.093L563.893 528.592ZM563.125 526.36L560.413 518.608L557.677 526.36H563.125ZM580.196 532L576.356 525.328H574.268V532H571.532V515.32H577.292C578.572 515.32 579.652 515.544 580.532 515.992C581.428 516.44 582.092 517.04 582.524 517.792C582.972 518.544 583.196 519.384 583.196 520.312C583.196 521.4 582.876 522.392 582.236 523.288C581.612 524.168 580.644 524.768 579.332 525.088L583.46 532H580.196ZM574.268 523.144H577.292C578.316 523.144 579.084 522.888 579.596 522.376C580.124 521.864 580.388 521.176 580.388 520.312C580.388 519.448 580.132 518.776 579.62 518.296C579.108 517.8 578.332 517.552 577.292 517.552H574.268V523.144ZM593.152 532.168C592.032 532.168 591.024 531.976 590.128 531.592C589.232 531.192 588.528 530.632 588.016 529.912C587.504 529.192 587.248 528.352 587.248 527.392H590.176C590.24 528.112 590.52 528.704 591.016 529.168C591.528 529.632 592.24 529.864 593.152 529.864C594.096 529.864 594.832 529.64 595.36 529.192C595.888 528.728 596.152 528.136 596.152 527.416C596.152 526.856 595.984 526.4 595.648 526.048C595.328 525.696 594.92 525.424 594.424 525.232C593.944 525.04 593.272 524.832 592.408 524.608C591.32 524.32 590.432 524.032 589.744 523.744C589.072 523.44 588.496 522.976 588.016 522.352C587.536 521.728 587.296 520.896 587.296 519.856C587.296 518.896 587.536 518.056 588.016 517.336C588.496 516.616 589.168 516.064 590.032 515.68C590.896 515.296 591.896 515.104 593.032 515.104C594.648 515.104 595.968 515.512 596.992 516.328C598.032 517.128 598.608 518.232 598.72 519.64H595.696C595.648 519.032 595.36 518.512 594.832 518.08C594.304 517.648 593.608 517.432 592.744 517.432C591.96 517.432 591.32 517.632 590.824 518.032C590.328 518.432 590.08 519.008 590.08 519.76C590.08 520.272 590.232 520.696 590.536 521.032C590.856 521.352 591.256 521.608 591.736 521.8C592.216 521.992 592.872 522.2 593.704 522.424C594.808 522.728 595.704 523.032 596.392 523.336C597.096 523.64 597.688 524.112 598.168 524.752C598.664 525.376 598.912 526.216 598.912 527.272C598.912 528.12 598.68 528.92 598.216 529.672C597.768 530.424 597.104 531.032 596.224 531.496C595.36 531.944 594.336 532.168 593.152 532.168Z" fill="white"/>
<ellipse cx="455" cy="173.5" rx="143" ry="144.5" fill="#EF1724"/>
<path d="M450.589 349.254C413.955 349.254 378.406 336.366 350.269 312.902L344.887 319.559C344.415 320.173 343.707 320.456 342.999 320.456C342.621 320.456 342.196 320.362 341.818 320.125C325.625 310.778 306.742 288.306 305.986 287.362C305.467 286.748 305.278 285.898 305.514 285.143C305.75 284.341 306.364 283.727 307.166 283.538L330.818 276.693L339.269 252.993C339.552 252.238 340.119 251.719 340.874 251.483C341.094 251.42 341.315 251.388 341.535 251.388C342.054 251.388 342.574 251.577 342.999 251.908L358.625 264.088L370.191 252.521C370.663 252.096 371.277 251.86 371.891 251.86C372.143 251.86 372.41 251.907 372.693 252.002C373.307 252.191 373.779 252.616 374.015 253.182C392.758 276.645 420.658 290.147 450.589 290.147C480.568 290.147 508.516 276.598 527.258 253.041C527.683 252.521 528.296 252.191 529.005 252.144C529.036 252.144 529.068 252.144 529.099 252.144C529.76 252.144 530.374 252.427 530.799 252.852L542.365 264.418L557.991 252.191C558.416 251.86 558.936 251.719 559.455 251.719C559.675 251.719 559.895 251.75 560.116 251.813C560.871 252.002 561.485 252.568 561.721 253.277L570.171 277.023L593.871 283.821C594.626 284.057 595.24 284.671 595.476 285.426C595.712 286.229 595.57 287.031 595.051 287.692C594.248 288.637 575.412 311.061 559.172 320.456C558.841 320.692 558.416 320.786 557.991 320.786C557.283 320.786 556.575 320.456 556.103 319.889L550.674 313.138C522.537 336.413 487.13 349.254 450.589 349.254Z" fill="white"/>
<path fill-rule="evenodd" clip-rule="evenodd" d="M344.462 250.019L358.436 260.877L368.492 250.869C369.389 249.925 370.616 249.453 371.891 249.453C372.426 249.453 372.961 249.547 373.496 249.736C374.582 250.113 375.479 250.869 376.045 251.86C394.316 274.663 421.461 287.74 450.59 287.74C479.812 287.74 507.1 274.568 525.37 251.577C526.219 250.491 527.494 249.83 528.863 249.783C528.958 249.752 529.036 249.736 529.099 249.736C530.374 249.736 531.601 250.255 532.498 251.152L542.554 261.208L556.528 250.302C557.378 249.641 558.416 249.311 559.455 249.311C559.927 249.311 560.383 249.374 560.824 249.5C562.288 249.925 563.468 251.058 563.987 252.474L572.013 275.04L594.532 281.508C596.09 281.98 597.317 283.16 597.789 284.718C598.261 286.276 597.931 287.976 596.892 289.203C596.09 290.195 576.97 312.95 560.399 322.533C559.644 322.958 558.794 323.194 557.992 323.194C556.575 323.194 555.206 322.58 554.262 321.4L550.344 316.49C522.065 339.198 486.847 351.661 450.59 351.661C414.191 351.661 378.878 339.104 350.599 316.301L346.728 321.07C345.784 322.25 344.415 322.864 342.999 322.864C342.196 322.864 341.346 322.675 340.591 322.203C324.02 312.619 304.948 289.864 304.145 288.92C303.107 287.645 302.729 285.946 303.201 284.435C303.72 282.877 304.948 281.65 306.506 281.225L328.977 274.71L337.003 252.191C337.522 250.727 338.703 249.594 340.213 249.169C340.654 249.043 341.095 248.98 341.535 248.98C342.574 248.98 343.612 249.358 344.462 250.019ZM332.66 278.675L307.828 285.804C307.828 285.804 326.995 308.795 342.999 318.048L349.939 309.456C376.99 332.73 412.161 346.846 450.59 346.846C488.877 346.846 523.953 332.825 551.004 309.692L557.992 318.379C573.996 309.126 593.21 286.134 593.21 286.134L568.33 278.959L559.455 254.079L542.176 267.628L529.099 254.551C510.735 277.684 482.362 292.508 450.59 292.508C418.723 292.508 390.256 277.59 371.891 254.315V254.221L358.814 267.298L341.535 253.796L332.66 278.675Z" fill="#EC1824"/>
<path d="M526.786 279.62L559.455 254.079L568.331 278.959L593.21 286.134C593.21 286.134 573.996 309.126 557.992 318.379L526.786 279.62Z" fill="#5B5959"/>
<path d="M567.67 293.122L557.992 318.379L526.786 279.62L529.099 254.551L567.67 293.122Z" fill="#444344"/>
<path d="M374.204 279.289L341.535 253.796L332.66 278.675L307.828 285.804C307.828 285.804 326.995 308.795 342.999 318.048L374.204 279.289Z" fill="#5B5959"/>
<path d="M333.321 292.791L342.999 318.048L374.204 279.289L371.891 254.221L333.321 292.791Z" fill="#444344"/>
<path d="M450.589 292.508C418.723 292.508 390.256 277.542 371.844 254.268L333.273 292.838C361.646 325.885 403.71 346.846 450.589 346.846C497.327 346.846 539.296 325.979 567.669 293.121L529.099 254.551C510.735 277.684 482.362 292.508 450.589 292.508Z" fill="#312F31"/>
<path d="M375.857 155.836C374.393 155.836 373.024 155.458 371.749 154.75C371.372 154.561 371.088 154.231 370.9 153.9C369.955 151.917 366.745 145.355 366.745 142.476C366.745 138.982 371.561 134.214 376.329 134.214C377.839 134.214 379.256 134.639 380.483 135.536C385.629 139.218 387.753 147.527 387.848 147.905C388.037 148.566 387.848 149.227 387.376 149.746C387.14 149.982 381.758 155.836 375.857 155.836Z" fill="#FDCF9E"/>
<path fill-rule="evenodd" clip-rule="evenodd" d="M381.663 133.883C387.328 137.943 389.594 146.441 389.83 147.385C390.161 148.707 389.783 150.123 388.886 151.115C388.225 151.823 382.513 157.866 375.856 157.866C374.062 157.866 372.316 157.394 370.758 156.544C370.05 156.119 369.483 155.505 369.105 154.797C367.453 151.54 364.715 145.591 364.715 142.475C364.715 137.943 370.333 132.184 376.328 132.184C378.264 132.184 380.105 132.75 381.663 133.883ZM368.775 142.475C368.775 145.072 372.74 153.003 372.74 153.003C373.732 153.57 374.818 153.759 375.856 153.759C380.908 153.759 385.865 148.377 385.865 148.377C385.865 148.377 383.929 140.493 379.303 137.188C378.358 136.527 377.32 136.244 376.328 136.244C372.504 136.244 368.775 140.351 368.775 142.475Z" fill="#282828"/>
<path d="M367.453 164.806L364.857 156.922C364.857 156.922 377.981 143.136 391.153 145.733L393.796 152.342C393.796 152.342 370.097 168.11 367.453 164.806Z" fill="white" stroke="#282828" stroke-width="8.6" stroke-linecap="round" stroke-linejoin="round"/>
<path d="M449.598 276.929C409.801 276.929 396.535 254.882 395.968 253.985C395.685 253.513 395.638 252.946 395.779 252.427L407.771 206.303C367.265 193.934 364.243 165.561 364.149 164.334C364.102 163.862 364.196 163.389 364.479 163.012C374.063 149.038 382.938 146.111 388.745 146.111C393.183 146.111 395.921 147.81 396.204 147.999C396.629 148.282 396.96 148.754 397.101 149.274C402.011 172.784 426.324 179.913 426.56 179.96C426.78 180.023 426.985 180.117 427.174 180.243C430.384 181.754 459.418 182.887 485.194 183.17C486.091 183.17 486.847 183.737 487.13 184.539L509.46 248.32C509.602 248.792 509.602 249.264 509.46 249.689C509.082 250.68 500.254 273.105 459.182 276.504C455.924 276.787 452.714 276.929 449.598 276.929Z" fill="white"/>
<path fill-rule="evenodd" clip-rule="evenodd" d="M397.29 146.299C398.234 146.866 398.847 147.81 399.084 148.849C401.019 158.102 406.259 165.797 414.616 171.698C421.083 176.23 427.032 177.977 427.126 178.024C427.441 178.119 427.756 178.245 428.07 178.402C432.225 179.771 460.22 180.857 485.241 181.14C486.941 181.14 488.451 182.273 489.018 183.878L511.395 247.659C511.679 248.556 511.679 249.547 511.348 250.397C510.97 251.435 501.717 274.993 459.323 278.534C456.018 278.817 452.761 278.959 449.598 278.959C408.667 278.959 394.787 255.967 394.221 254.976C393.654 254.079 393.513 252.946 393.796 251.907L405.315 207.672C385.204 201.063 374.629 190.393 369.294 182.368C362.921 172.926 362.118 164.853 362.118 164.522C362.024 163.578 362.26 162.634 362.827 161.879C372.882 147.149 382.466 144.081 388.745 144.081C393.749 144.081 396.959 146.063 397.29 146.299ZM366.178 164.145C366.178 164.145 368.775 193.084 410.225 204.934L397.714 252.946C397.714 252.946 410.508 274.899 449.598 274.899C452.588 274.899 455.719 274.757 458.993 274.474C499.31 271.122 507.571 248.98 507.571 248.98L485.194 185.2C485.194 185.2 429.298 184.539 425.993 181.896C425.993 181.896 400.358 174.672 395.071 149.699C395.071 149.699 392.71 148.141 388.745 148.141C383.41 148.141 375.195 150.973 366.178 164.145Z" fill="#282828"/>
<g opacity="0.4">
<path d="M386.715 175.381C383.221 164.428 391.294 157.11 396.204 153.853C395.763 152.531 395.386 151.146 395.071 149.699C395.071 149.699 381.947 141.154 366.179 164.145C366.179 164.145 368.775 193.084 410.225 204.934C410.225 204.934 391.578 190.818 386.715 175.381Z" fill="#B3B7BA"/>
<path d="M410.225 204.934L397.714 252.946C397.714 252.946 406.07 266.873 428.353 271.688C401.161 243.693 410.225 204.934 410.225 204.934Z" fill="#B3B7BA"/>
</g>
<path d="M452.62 199.552L422.075 209.56L412.728 265.315" fill="white"/>
<path d="M452.62 199.552L422.075 209.56L412.728 265.315" stroke="#282828" stroke-width="8.6" stroke-linecap="round" stroke-linejoin="round"/>
<path d="M407.015 208.711L417.542 177.222L407.015 208.711Z" fill="white"/>
<path d="M407.015 208.711L417.542 177.222" stroke="#282828" stroke-width="8.6" stroke-linecap="round" stroke-linejoin="round"/>
<path d="M460.173 202.054C444.311 202.054 429.345 196.011 420.187 185.861C413.341 178.308 410.225 169.054 411.217 159.14C414.049 130.909 439.779 120.759 440.912 120.334C440.943 120.303 440.99 120.287 441.053 120.287C449.457 117.785 457.293 116.51 464.328 116.51C497.894 116.51 505.117 145.261 506.58 154.797C508.374 154.089 510.263 153.711 512.198 153.711C516.919 153.711 521.262 155.836 523.765 159.424C526.314 162.964 526.786 167.497 525.134 172.218C521.64 182.32 515.409 184.445 510.782 184.445C508.044 184.445 505.636 183.689 503.984 183.029C501.576 187.419 493.692 197.239 470.323 201.204C467.019 201.771 463.572 202.054 460.173 202.054Z" fill="#FDCF9E"/>
<path fill-rule="evenodd" clip-rule="evenodd" d="M502.662 136.291C505.872 142.192 507.43 148.046 508.233 152.153C509.523 151.839 510.845 151.681 512.198 151.681C517.58 151.681 522.537 154.136 525.417 158.243C528.344 162.351 528.911 167.544 527.069 172.878C522.962 184.681 515.078 186.475 510.782 186.475C508.516 186.475 506.486 186.003 504.834 185.483C501.34 190.724 492.37 199.505 470.701 203.187C467.208 203.754 463.667 204.084 460.173 204.084C443.744 204.084 428.212 197.758 418.676 187.23C411.406 179.205 408.148 169.432 409.187 158.952C412.161 129.493 439.023 118.871 440.156 118.446C440.251 118.414 440.345 118.383 440.44 118.351C449.079 115.755 457.105 114.48 464.328 114.48C486.233 114.48 497.28 126.33 502.662 136.291ZM441.62 122.222C441.62 122.222 415.985 132.042 413.247 159.329C410.839 183.548 434.586 200.024 460.173 200.024C463.431 200.024 466.735 199.741 469.993 199.174C498.932 194.264 503.04 180.29 503.04 180.29C503.04 180.29 506.533 182.415 510.782 182.415C515.078 182.415 520.177 180.243 523.198 171.557C526.503 162.115 519.705 155.741 512.198 155.741C509.743 155.741 507.194 156.449 504.928 157.913C504.928 157.913 502.898 118.54 464.328 118.54C457.813 118.54 450.306 119.626 441.62 122.222Z" fill="#282828"/>
<g style="mix-blend-mode:multiply" opacity="0.3">
<path d="M435.86 158.716C438.126 136.291 449.456 122.223 455.688 119.154C451.392 119.72 446.718 120.712 441.62 122.223C441.62 122.223 415.985 132.042 413.247 159.329C410.508 186.617 441.053 204.084 469.993 199.174C475.705 198.23 480.379 196.908 484.297 195.398C455.971 199.269 433.169 185.389 435.86 158.716Z" fill="#D49A72"/>
</g>
<path d="M423.585 170.754C418.534 170.754 414.002 169.385 410.839 166.836C399.32 157.63 405.504 143.703 405.598 143.561C405.787 143.089 406.212 142.853 406.684 142.853C406.842 142.853 407.015 142.885 407.204 142.948C407.77 143.231 408.053 143.939 407.817 144.553C407.204 145.922 407.298 147.149 408.006 148.235C409.753 150.879 414.663 152.248 418.628 152.248C420.186 152.248 421.602 152.012 422.641 151.634C424.01 151.162 425.426 150.879 426.796 150.879C431.186 150.879 434.113 153.428 434.255 153.523C439.542 157.677 439.778 161.265 438.976 163.531C437.276 168.488 429.817 170.754 423.585 170.754Z" fill="#292B26"/>
<path fill-rule="evenodd" clip-rule="evenodd" d="M406.684 144.081C404.088 150.123 412.208 153.475 418.628 153.475C420.281 153.475 421.839 153.239 423.066 152.814C424.388 152.295 425.663 152.106 426.796 152.106C430.808 152.106 433.452 154.42 433.452 154.42C444.263 162.965 434.255 169.527 423.585 169.527C419.242 169.527 414.757 168.441 411.594 165.892C400.689 157.158 406.684 144.081 406.684 144.081ZM406.684 141.626C405.787 141.626 404.89 142.145 404.465 143.042C402.105 148.188 400.264 159.943 410.083 167.78C413.435 170.471 418.251 171.982 423.585 171.982C430.242 171.982 438.22 169.432 440.156 163.909C441.053 161.312 440.864 157.205 434.963 152.531C434.444 152.059 431.375 149.699 426.796 149.699C425.285 149.699 423.727 149.935 422.216 150.501C421.319 150.832 420.045 151.02 418.628 151.02C414.521 151.02 410.319 149.51 408.998 147.574C408.667 147.055 408.384 146.299 408.95 145.025C409.47 143.797 408.903 142.381 407.676 141.815C407.361 141.689 407.031 141.626 406.684 141.626Z" fill="#282828"/>
<path d="M437.229 136.81C434.821 141.012 431.281 143.467 429.345 142.334C427.362 141.201 427.74 136.905 430.148 132.75C432.555 128.549 436.096 126.094 438.079 127.227C440.014 128.36 439.684 132.656 437.229 136.81Z" fill="#292B26"/>
<path d="M445.444 147.338C445.963 145.686 441.053 132.609 430.148 135.866C419.242 139.124 421.981 166.977 443.272 158.244" fill="#FDCF9E"/>
<path d="M445.444 147.338C445.491 146.677 445.208 146.063 445.019 145.45C444.736 144.883 444.452 144.269 444.169 143.703C443.508 142.617 442.847 141.531 441.95 140.587C440.345 138.652 438.221 137.188 435.908 136.622L435.483 136.527C435.341 136.48 435.199 136.48 435.058 136.48L434.161 136.385C433.594 136.385 432.981 136.48 432.414 136.48C431.8 136.574 431.234 136.763 430.667 136.905C430.101 137.046 429.629 137.282 429.157 137.566C427.268 138.746 426.041 140.918 425.521 143.278C424.955 145.591 424.955 148.093 425.521 150.454C426.041 152.814 427.221 155.033 428.968 156.686C429.865 157.488 430.903 158.102 432.036 158.574C433.169 158.952 434.35 159.282 435.624 159.329C438.174 159.518 440.723 158.999 443.272 158.244C440.959 159.471 438.362 160.368 435.624 160.51C434.255 160.651 432.886 160.415 431.517 160.085C430.148 159.707 428.873 158.999 427.74 158.102C426.607 157.252 425.71 156.119 424.955 154.939C424.2 153.711 423.633 152.39 423.303 151.02C422.547 148.33 422.5 145.45 423.161 142.664C423.491 141.295 424.058 139.973 424.813 138.746C425.616 137.519 426.654 136.385 427.976 135.63C428.637 135.205 429.345 134.969 430.054 134.78C430.762 134.639 431.47 134.45 432.178 134.355C432.886 134.355 433.594 134.308 434.302 134.355L435.388 134.544C435.577 134.592 435.719 134.592 435.908 134.639L436.427 134.828C439.165 135.677 441.431 137.613 442.895 139.832C443.697 140.965 444.264 142.192 444.783 143.42C445.208 144.694 445.68 146.016 445.444 147.338Z" fill="#282828"/>
<path d="M473.817 141.342C467.821 136.952 457.435 143.514 457.435 143.514C457.435 143.514 459.087 141.862 466.169 144.6" fill="#FDCF9E"/>
<path d="M473.817 141.343C472.448 140.776 471.079 140.587 469.71 140.587C468.34 140.634 467.019 140.918 465.697 141.295C464.375 141.673 463.053 142.145 461.778 142.664C460.504 143.231 459.229 143.845 458.049 144.458L457.954 144.506C457.388 144.789 456.727 144.6 456.444 144.033C456.208 143.609 456.302 143.042 456.68 142.712C456.774 142.617 456.774 142.617 456.821 142.57C456.884 142.538 456.931 142.507 456.963 142.476C457.057 142.428 457.105 142.381 457.199 142.381C457.325 142.318 457.451 142.271 457.577 142.239C457.828 142.145 458.064 142.098 458.285 142.098C458.757 142.003 459.182 142.051 459.607 142.051C460.456 142.145 461.259 142.334 462.014 142.57C463.525 143.042 464.894 143.75 466.169 144.6C465.413 144.506 464.658 144.364 463.903 144.27C463.179 144.175 462.455 144.096 461.731 144.033C460.976 143.986 460.268 143.939 459.607 143.986C459.276 144.033 458.946 144.081 458.662 144.128C458.537 144.191 458.426 144.238 458.332 144.27C458.269 144.301 458.222 144.332 458.19 144.364C458.143 144.364 458.19 144.364 458.143 144.364C458.19 144.364 458.19 144.364 458.238 144.317L456.869 142.57C458.143 141.673 459.465 141.012 460.834 140.446C462.25 139.832 463.714 139.407 465.225 139.171C465.98 139.029 466.735 138.982 467.538 138.935L468.671 138.982C469.096 139.029 469.473 139.124 469.851 139.171C471.362 139.501 472.825 140.209 473.817 141.343Z" fill="#282828"/>
<path d="M431.8 118.399C432.319 116.841 433.216 115.519 434.396 114.386C435.624 113.253 437.087 112.308 438.976 112.025C439.873 111.884 440.911 111.931 441.855 112.261C442.8 112.545 443.602 113.111 444.216 113.772C445.443 115.141 445.963 116.793 445.963 118.399C444.782 117.313 443.697 116.321 442.611 115.755C441.525 115.188 440.581 115.094 439.448 115.235C438.362 115.377 437.134 115.896 435.86 116.463C434.585 117.077 433.263 117.738 431.8 118.399Z" fill="#282828"/>
<g style="mix-blend-mode:multiply" opacity="0.5">
<path d="M426.371 139.501C426.371 139.501 429.345 156.308 446.435 153.051C446.435 153.051 438.032 166.033 428.023 156.308C417.968 146.536 426.371 139.501 426.371 139.501Z" fill="#D49A72"/>
</g>
<path d="M454.177 134.214C454.177 134.214 455.83 136.952 468.907 134.214C482.031 131.476 482.55 134.78 482.55 134.78" fill="#FDCF9E"/>
<path d="M455.924 133.175C455.735 132.939 455.783 132.986 455.736 132.939C455.688 132.892 455.688 132.892 455.688 132.892C455.657 132.86 455.641 132.86 455.641 132.892C455.641 132.892 455.688 132.939 455.736 132.986C455.893 133.049 456.082 133.128 456.302 133.222C456.68 133.364 457.199 133.506 457.718 133.6C458.804 133.789 459.984 133.836 461.117 133.836C463.478 133.836 465.886 133.647 468.293 133.317C470.748 132.986 473.203 132.703 475.705 132.703C476.933 132.703 478.207 132.797 479.435 132.986C480.064 133.112 480.662 133.285 481.229 133.506C481.795 133.789 482.362 134.167 482.551 134.78C482.315 134.214 481.701 133.93 481.134 133.742C480.568 133.584 479.986 133.506 479.388 133.506C478.16 133.474 476.948 133.553 475.752 133.742C473.392 134.072 471.031 134.639 468.671 135.3C466.31 135.96 463.856 136.527 461.353 136.857C460.079 137.046 458.804 137.188 457.435 137.141C456.727 137.094 456.019 137.046 455.263 136.905C454.886 136.81 454.492 136.684 454.083 136.527C453.847 136.433 453.658 136.338 453.375 136.197C453.281 136.102 453.155 136.008 452.997 135.913C452.903 135.819 452.856 135.819 452.761 135.677C452.667 135.583 452.62 135.583 452.431 135.252C451.864 134.308 452.148 133.081 453.139 132.467C454.083 131.9 455.358 132.231 455.924 133.175Z" fill="#282828"/>
<path d="M498.791 166.741C498.35 166.741 497.894 166.663 497.421 166.505C492.276 164.617 493.975 157.11 495.108 152.106C495.344 150.973 495.628 149.604 495.675 149.038C494.258 147.48 491.709 143.184 491.19 139.879C490.623 136.669 489.301 129.54 489.254 129.446C489.207 129.115 489.301 128.785 489.49 128.549C490.01 127.793 491.001 126.896 492.842 126.896C496.666 126.896 501.67 130.815 503.606 132.467C504.692 133.411 509.979 138.038 509.979 140.776C509.979 144.033 506.25 148.613 505.069 149.982C505.022 151.162 504.928 154.419 504.409 157.724C503.464 163.814 501.623 166.741 498.791 166.741Z" fill="#8A1F00"/>
<path fill-rule="evenodd" clip-rule="evenodd" d="M504.409 131.57C506.439 133.317 511.207 137.707 511.207 140.776C511.207 144.222 507.808 148.613 506.25 150.454C506.25 151.917 506.108 154.892 505.636 157.913C505.211 160.368 504.031 167.969 498.791 167.969C498.193 167.969 497.595 167.859 496.997 167.638C490.86 165.419 492.748 156.922 493.881 151.87C494.07 151.068 494.306 150.029 494.4 149.415C492.89 147.527 490.529 143.467 489.963 140.115C489.443 136.905 488.074 129.776 488.074 129.682C487.933 129.021 488.122 128.36 488.499 127.84C489.443 126.424 491.001 125.669 492.843 125.669C496.903 125.669 501.812 129.351 504.409 131.57ZM490.482 129.21C490.482 129.21 491.851 136.433 492.37 139.69C492.937 142.948 495.675 147.338 496.761 148.424C497.847 149.51 491.851 163.153 497.847 165.325C498.193 165.451 498.508 165.514 498.791 165.514C503.842 165.514 503.842 149.51 503.842 149.51C503.842 149.51 508.752 144.081 508.752 140.776C508.752 138.038 498.224 128.124 492.843 128.124C491.851 128.124 491.001 128.454 490.482 129.21Z" fill="#282828"/>
<path d="M452.053 169.527C445.019 169.527 440.251 168.016 437.843 165.042C435.766 162.445 436.332 159.754 436.332 159.613C436.364 159.487 436.411 159.361 436.474 159.235C436.663 158.952 441.431 151.256 450.637 151.256C452.431 151.256 454.319 151.587 456.16 152.153C460.22 153.475 464.753 154.183 468.954 154.183C477.924 154.183 483.778 151.115 484.628 146.063C484.722 145.45 485.241 145.025 485.808 145.025C485.839 145.025 485.855 145.025 485.855 145.025C486.422 145.025 486.941 145.45 487.035 146.063C487.083 146.299 487.932 152.248 483.589 158.149C479.435 163.72 472.164 167.261 461.967 168.724C458.285 169.243 454.98 169.527 452.053 169.527Z" fill="#292B26"/>
<path fill-rule="evenodd" clip-rule="evenodd" d="M485.855 143.797C487.035 143.797 488.074 144.694 488.215 145.875C488.263 146.158 489.207 152.578 484.533 158.857C480.237 164.711 472.683 168.441 462.156 169.952C458.426 170.471 455.027 170.754 452.053 170.754C444.641 170.754 439.542 169.102 436.899 165.797C434.491 162.823 435.057 159.707 435.152 159.377C435.215 159.125 435.309 158.873 435.435 158.621C435.671 158.291 440.722 150.076 450.637 150.076C452.572 150.076 454.555 150.36 456.538 151.02C460.456 152.248 464.847 152.956 468.954 152.956C472.07 152.956 482.314 152.437 483.447 145.827C483.636 144.647 484.627 143.797 485.808 143.797C485.839 143.797 485.855 143.797 485.855 143.797ZM468.954 155.364C464.563 155.364 459.937 154.656 455.83 153.334C453.941 152.72 452.194 152.484 450.637 152.484C441.997 152.484 437.512 159.896 437.512 159.896C437.512 159.896 435.718 168.299 452.053 168.299C454.791 168.299 458.001 168.063 461.825 167.544C488.546 163.72 485.808 146.252 485.808 146.252C484.769 152.673 477.31 155.364 468.954 155.364Z" fill="#282828"/>
<path d="M505.494 152.626C505.337 152.626 505.18 152.61 505.022 152.578C504.314 152.437 503.748 151.918 503.559 151.257C495.061 125.055 471.031 121.184 457.482 121.184C453.658 121.184 451.203 121.514 451.203 121.514C451.109 121.514 451.014 121.514 450.92 121.514C450.117 121.514 449.409 121.09 449.079 120.334C448.701 119.532 448.89 118.587 449.551 117.974L467.915 101.639C465.13 96.4461 465.224 88.6093 468.246 82.6137C471.409 76.4292 477.074 73.0302 484.203 73.0302C485.336 73.0302 486.563 73.1246 487.743 73.2662C501.529 75.249 505.494 84.5965 506.58 90.7338C509.696 87.9484 514.228 85.824 519.327 85.824C524.378 85.824 529.288 87.9012 533.584 91.7724C537.03 94.9354 538.872 98.6178 538.966 102.725C539.108 108.296 535.992 113.3 533.867 116.038C541.043 119.721 545.434 126.283 545.528 133.647C545.622 140.965 541.374 147.527 534.623 150.312C532.121 151.351 529.666 151.87 527.258 151.87C520.46 151.87 516.069 147.716 513.945 145.025L506.911 152.059C506.533 152.437 506.014 152.626 505.494 152.626Z" fill="white"/>
<path fill-rule="evenodd" clip-rule="evenodd" d="M488.027 71.2832C499.829 72.9356 504.928 79.7338 507.147 85.1629C507.398 85.8553 507.634 86.532 507.855 87.1929C510.971 85.2101 514.889 83.7938 519.327 83.7938C524.85 83.7938 530.279 86.0599 534.953 90.3088C538.824 93.8023 540.854 97.9567 540.996 102.678C541.09 107.682 538.919 112.261 536.841 115.377C543.451 119.532 547.464 126.188 547.558 133.6C547.653 141.767 542.884 149.038 535.425 152.153C532.64 153.334 529.902 153.9 527.258 153.9C520.979 153.9 516.541 150.784 513.85 147.999L508.374 153.475C507.571 154.231 506.533 154.656 505.494 154.656C505.18 154.656 504.865 154.624 504.55 154.561C503.134 154.231 502.048 153.192 501.623 151.87C493.55 126.943 470.512 123.214 457.482 123.214C453.847 123.214 451.486 123.497 451.486 123.497C451.266 123.529 451.077 123.544 450.92 123.544C449.315 123.544 447.898 122.647 447.19 121.184C446.482 119.579 446.86 117.643 448.182 116.463L465.413 101.167C463.053 95.4546 463.336 87.8538 466.452 81.7166C469.898 74.8712 476.366 71 484.203 71C485.43 71 486.752 71.0944 488.027 71.2832ZM470.559 102.017L450.92 119.484C450.92 119.484 453.422 119.154 457.482 119.154C469.898 119.154 496.383 122.553 505.494 150.595L514.228 141.862C514.228 141.862 518.571 149.84 527.258 149.84C529.241 149.84 531.412 149.415 533.867 148.424C546.944 142.948 547.511 123.308 530.563 116.746C530.563 116.746 543.687 103.669 532.215 93.283C527.872 89.3646 523.387 87.9011 519.327 87.9011C512.576 87.9011 506.958 91.9611 504.928 96.0211C504.928 96.0211 506.58 78.0342 487.46 75.2961C486.327 75.1387 485.241 75.06 484.203 75.06C467.963 75.06 464.894 94.3216 470.559 102.017Z" fill="#282828"/>
<path d="M536.841 104.377C536.936 103.622 536.951 102.882 536.889 102.158L536.841 104.377Z" fill="#B3B7BA"/>
<g opacity="0.4">
<path d="M538.73 135.441C532.309 138.085 527.494 136.574 524.237 134.355C520.837 132.042 516.258 132.892 513.898 136.244L513.662 136.621C511.726 139.407 507.524 139.076 505.966 136.055C495.675 116.132 473.864 109.759 461.873 109.145L450.92 119.484C450.92 119.484 493.456 113.489 505.494 150.595L514.228 141.862C514.228 141.862 520.743 153.9 533.867 148.424C540.618 145.591 544.017 139.029 543.404 132.42C542.129 133.647 540.524 134.686 538.73 135.441Z" fill="#B3B7BA"/>
</g>
<path d="M475.847 128.69C475.123 128.69 474.336 128.564 473.486 128.313C471.032 127.557 469.521 126.424 468.624 125.291C467.585 126.283 465.886 126.755 463.62 126.755C463.21 126.755 462.754 126.739 462.251 126.707C458.993 126.471 457.105 125.622 456.349 124.158C455.264 124.819 453.894 125.386 452.289 125.386C451.062 125.386 449.834 125.055 448.654 124.394C446.671 123.261 446.199 121.892 446.105 120.901C446.01 118.823 447.71 116.935 448.796 115.944C448.56 115.283 448.371 114.433 448.654 113.536C449.173 111.978 450.731 110.845 453.328 110.137C454.178 109.917 454.965 109.806 455.688 109.806C457.53 109.806 459.04 110.562 459.937 112.025C461.118 110.42 463.053 108.721 465.98 108.721C466.673 108.721 467.396 108.831 468.152 109.051C470.418 109.665 471.881 110.798 472.542 112.356C472.731 112.796 472.841 113.237 472.873 113.678C474.1 112.875 475.705 112.214 477.405 112.214C479.671 112.214 481.701 113.3 483.495 115.424C485.431 117.785 486.091 119.862 485.383 121.656C484.581 123.686 482.22 124.536 480.946 124.819C480.426 126.519 478.963 128.69 475.847 128.69Z" fill="#8A1F00"/>
<path fill-rule="evenodd" clip-rule="evenodd" d="M465.933 109.948C466.531 109.948 467.16 110.043 467.821 110.231C473.817 111.836 471.078 116.746 471.078 116.746C471.078 116.746 473.911 113.442 477.404 113.442C479.057 113.442 480.851 114.15 482.55 116.227C488.027 122.789 479.907 123.781 479.907 123.781C479.907 123.781 479.435 127.463 475.847 127.463C475.28 127.463 474.572 127.368 473.817 127.132C469.993 125.999 468.86 123.781 468.529 122.553C468.482 122.034 468.34 121.703 468.34 121.703C468.34 121.703 468.34 122.034 468.529 122.553C468.529 123.686 467.915 125.527 463.619 125.527C463.242 125.527 462.817 125.512 462.345 125.48C455.216 125.008 457.624 121.656 457.954 121.184C457.624 121.562 455.405 124.158 452.289 124.158C451.345 124.158 450.306 123.922 449.268 123.308C444.358 120.57 450.353 116.227 450.353 116.227C450.353 116.227 447.615 112.97 453.611 111.317C454.413 111.081 455.074 110.987 455.688 110.987C459.654 110.987 459.654 115.141 459.654 115.141C459.654 115.141 461.353 109.948 465.933 109.948ZM465.933 107.54C463.383 107.54 461.4 108.673 459.937 110.137C458.851 109.098 457.388 108.579 455.688 108.579C454.838 108.579 453.941 108.705 452.997 108.957C449.976 109.806 448.135 111.176 447.521 113.158C447.238 114.008 447.238 114.811 447.426 115.566C446.199 116.793 444.783 118.729 444.877 120.995C444.971 122.27 445.585 124.064 448.087 125.433C449.409 126.188 450.825 126.566 452.289 126.566C453.658 126.566 454.933 126.235 455.971 125.716C457.765 127.605 460.976 127.841 462.203 127.935C462.675 127.966 463.147 127.982 463.619 127.982C465.634 127.982 467.239 127.62 468.435 126.896C469.52 127.888 470.984 128.832 473.108 129.493C474.084 129.776 474.997 129.918 475.847 129.918C479.246 129.918 481.04 127.746 481.842 125.811C483.4 125.338 485.666 124.3 486.516 122.081C487.413 119.862 486.705 117.36 484.439 114.669C481.889 111.648 479.246 110.987 477.404 110.987C476.035 110.987 474.761 111.364 473.675 111.884C473.061 110.515 471.692 108.768 468.482 107.871C467.601 107.651 466.751 107.54 465.933 107.54Z" fill="#282828"/>
<g style="mix-blend-mode:multiply" opacity="0.8">
<path d="M470.795 111.884C470.732 111.821 470.669 111.742 470.606 111.647C470.465 112.12 470.276 112.45 470.276 112.45C470.276 112.45 470.465 112.214 470.795 111.884Z" fill="#8A1F00"/>
<path d="M483.306 117.171C482.22 119.059 479.104 119.437 479.104 119.437C479.104 119.437 478.49 124.441 473.014 122.789C469.19 121.656 468.057 119.437 467.679 118.21C467.726 119.437 467.018 121.562 461.542 121.184C454.366 120.665 456.821 117.265 457.151 116.841C456.774 117.313 453.091 121.562 448.465 118.965C448.276 118.902 448.119 118.808 447.993 118.682C447.096 120.145 446.765 121.939 449.267 123.308C453.941 125.905 457.576 121.609 457.954 121.184C457.624 121.609 455.216 125.008 462.345 125.48C467.821 125.905 468.529 123.78 468.529 122.553C468.859 123.78 469.993 125.999 473.817 127.132C479.293 128.785 479.907 123.78 479.907 123.78C479.907 123.78 487.177 122.883 483.306 117.171Z" fill="#8A1F00"/>
</g>
<path d="M366.556 145.025C341.016 145.025 322.604 136.716 321.801 124.772C320.952 111.364 343.093 99.0898 372.316 96.871C375.29 96.6349 378.311 96.4933 381.238 96.4933C406.779 96.4933 425.191 104.849 425.946 116.746C426.843 130.154 404.654 142.428 375.479 144.694C372.505 144.93 369.483 145.025 366.556 145.025Z" fill="#B3B7BA"/>
<path fill-rule="evenodd" clip-rule="evenodd" d="M427.882 116.652C428.401 124.111 422.783 131.381 412.161 136.999C402.53 142.145 389.548 145.544 375.621 146.63C372.599 146.866 369.531 147.008 366.556 147.008C339.93 147.008 320.716 137.896 319.866 124.913C319.394 117.407 324.965 110.184 335.587 104.519C345.265 99.4202 358.248 95.9739 372.127 94.9353C375.196 94.6992 378.264 94.5576 381.239 94.5576V98.476C378.375 98.476 375.448 98.5862 372.458 98.8065C344.746 100.931 322.982 112.497 323.784 124.63C324.493 135.488 342.904 143.089 366.556 143.089C369.421 143.089 372.348 142.979 375.337 142.759C403.002 140.587 424.813 129.021 424.011 116.888C423.302 106.077 404.843 98.476 381.239 98.476V94.5576C407.865 94.5576 427.032 103.622 427.882 116.652Z" fill="#282828"/>
<path d="M366.32 139.124C341.582 139.124 323.831 131.145 323.076 119.768C322.226 106.927 343.754 95.1242 372.032 92.9525C374.959 92.7165 377.934 92.5748 380.813 92.5748C405.551 92.5748 423.302 100.553 424.058 111.978C424.907 124.819 403.38 136.621 375.101 138.793C372.174 139.029 369.2 139.124 366.32 139.124Z" fill="#F2BF57"/>
<path fill-rule="evenodd" clip-rule="evenodd" d="M411.264 95.8796C420.375 99.6563 425.568 105.369 425.993 111.836C426.465 119.107 421.036 126.047 410.697 131.523C401.303 136.433 388.745 139.69 375.243 140.729C372.269 140.965 369.247 141.106 366.32 141.106C354.66 141.106 343.849 139.218 335.87 135.866C326.759 132.042 321.566 126.377 321.141 119.862C320.669 112.639 326.098 105.652 336.437 100.223C345.831 95.313 358.389 92.0556 371.891 91.017C374.865 90.7809 377.887 90.6393 380.814 90.6393V94.5577C378.028 94.5577 375.149 94.6521 372.174 94.8882C345.359 96.9654 324.257 108.012 325.012 119.626C325.673 129.965 343.471 137.188 366.32 137.188C369.106 137.188 371.985 137.094 374.96 136.858C401.775 134.78 422.878 123.686 422.122 112.12C421.461 101.781 403.663 94.5577 380.814 94.5577V90.6393C392.475 90.6393 403.286 92.4805 411.264 95.8796Z" fill="#282828"/>
<path d="M366.32 129.87C342.857 129.87 329.827 122.317 329.497 116.841C329.072 110.278 345.595 99.373 372.505 97.2958C375.29 97.107 378.076 96.9653 380.814 96.9653C404.277 96.9653 417.307 104.566 417.637 110.042C417.873 113.347 413.766 117.643 406.921 121.231C398.517 125.622 387.045 128.596 374.629 129.54C371.844 129.776 369.058 129.87 366.32 129.87Z" fill="#FFE7B2"/>
<path d="M433.547 220.041C433.547 222.779 431.8 224.951 429.581 224.951C427.41 224.951 425.663 222.779 425.663 220.041C425.663 217.303 427.41 215.131 429.581 215.131C431.8 215.131 433.547 217.303 433.547 220.041Z" fill="#292B26"/>
<path d="M433.547 242.418C433.547 245.109 431.8 247.328 429.581 247.328C427.41 247.328 425.663 245.109 425.663 242.418C425.663 239.68 427.41 237.461 429.581 237.461C431.8 237.461 433.547 239.68 433.547 242.418Z" fill="#292B26"/>
<path d="M453.942 216.736C453.942 219.475 452.148 221.693 449.976 221.693C447.804 221.693 446.058 219.475 446.058 216.736C446.058 214.045 447.804 211.827 449.976 211.827C452.148 211.827 453.942 214.045 453.942 216.736Z" fill="#292B26"/>
<path d="M434.68 218.53C434.68 221.08 433.028 223.157 430.95 223.157C428.92 223.157 427.268 221.08 427.268 218.53C427.268 216.028 428.92 213.951 430.95 213.951C433.028 213.951 434.68 216.028 434.68 218.53Z" fill="white"/>
<path d="M434.68 239.491C434.68 242.041 433.028 244.071 430.95 244.071C428.92 244.071 427.268 242.041 427.268 239.491C427.268 236.942 428.92 234.865 430.95 234.865C433.028 234.865 434.68 236.942 434.68 239.491Z" fill="white"/>
<path d="M455.358 215.462C455.358 218.011 453.706 220.088 451.676 220.088C449.645 220.088 447.993 218.011 447.993 215.462C447.993 212.912 449.645 210.882 451.676 210.882C453.706 210.882 455.358 212.912 455.358 215.462Z" fill="white"/>
<path d="M454.272 236.848C454.272 239.539 452.525 241.757 450.353 241.757C448.134 241.757 446.388 239.539 446.388 236.848C446.388 234.109 448.134 231.891 450.353 231.891C452.525 231.891 454.272 234.109 454.272 236.848Z" fill="white" stroke="black" stroke-width="1.2" stroke-miterlimit="10"/>
<path d="M507.855 246.101C506.344 246.101 504.881 245.723 503.559 244.968C502.567 244.354 500.962 243.551 498.885 242.56C487.035 236.706 462.345 224.573 462.345 206.492C462.345 206.334 462.36 206.177 462.392 206.02C462.534 205.547 465.319 194.595 485.572 193.981C485.824 193.95 486.075 193.934 486.327 193.934C498.082 193.934 507.855 202.526 512.67 207.577C519.28 214.612 524.095 223.204 524.095 228.019C524.095 235.573 515.928 246.101 507.855 246.101Z" fill="white"/>
<path fill-rule="evenodd" clip-rule="evenodd" d="M514.181 206.208C521.215 213.668 526.125 222.685 526.125 228.067C526.125 232.315 524.047 237.272 520.507 241.332C516.73 245.629 512.151 248.131 507.855 248.131C505.966 248.131 504.172 247.659 502.567 246.714C501.623 246.148 499.923 245.345 497.988 244.401C485.76 238.358 460.314 225.8 460.314 206.492C460.314 206.177 460.362 205.862 460.456 205.548C460.551 205.028 463.714 192.612 485.524 191.951C485.808 191.92 486.075 191.904 486.327 191.904C498.838 191.904 509.129 200.874 514.181 206.208ZM485.666 196.011C466.735 196.578 464.375 206.492 464.375 206.492C464.375 226.273 497.61 239.114 504.597 243.174C505.636 243.787 506.722 244.071 507.855 244.071C514.464 244.071 522.065 235.006 522.065 228.019C522.065 219.994 505.022 195.964 486.327 195.964C486.107 195.964 485.886 195.98 485.666 196.011Z" fill="#282828"/>
<g opacity="0.4">
<path d="M508.894 228.775C502.851 225.281 477.169 215.178 470.371 199.694C465.272 202.715 464.375 206.492 464.375 206.492C464.375 226.273 497.611 239.114 504.598 243.174C511.585 247.281 522.065 236.187 522.065 228.067C522.065 227.122 521.829 225.942 521.404 224.668C517.769 228.633 512.812 231.041 508.894 228.775Z" fill="#B3B7BA"/>
</g>
<path d="M464.941 228.964C461.495 256.251 481.748 259.414 491.379 259.414C494.259 259.414 496.194 259.131 496.194 259.131C496.194 259.131 534.859 245.109 518.949 220.891C514.606 214.281 508.61 211.874 502.19 211.874C485.1 211.874 464.941 228.964 464.941 228.964Z" fill="white"/>
<path d="M522.584 229.908C525.369 248.556 496.194 259.131 496.194 259.131C496.194 259.131 494.258 259.414 491.378 259.414C481.748 259.414 461.495 256.251 464.941 228.964C464.941 228.964 476.932 218.814 490.292 214.14C483.872 214.706 477.546 216.311 471.975 218.861C466.404 222.449 462.675 225.564 462.344 225.895C461.542 226.509 461.07 227.453 460.928 228.444C459.512 239.397 461.542 248.036 466.924 254.126C474.052 262.246 485.288 263.474 491.378 263.474C494.541 263.474 496.713 263.143 496.807 263.143C497.091 263.112 497.358 263.049 497.61 262.955C498.554 262.624 520.601 254.457 525.747 238.972C527.494 233.873 527.163 228.633 524.897 223.346C524.897 223.377 524.881 223.393 524.85 223.393C523.056 225.045 522.253 227.5 522.584 229.908Z" fill="#282828"/>
<g opacity="0.4">
<path d="M512.765 233.921C512.765 233.921 487.366 237.745 482.078 217.728C472.4 222.685 464.941 228.964 464.941 228.964C460.409 264.512 496.194 259.131 496.194 259.131C496.194 259.131 526.031 248.32 522.49 229.247C517.202 232.315 512.765 233.921 512.765 233.921Z" fill="#B3B7BA"/>
</g>
<path d="M464.941 228.964C464.941 228.964 472.353 222.496 487.696 235.951C503.04 249.453 496.194 259.131 496.194 259.131" stroke="#282828" stroke-width="7.6" stroke-linecap="round" stroke-linejoin="round"/>
<path d="M454.744 270.178C453.564 270.178 452.525 270.083 451.676 269.894C450.212 269.611 449.079 268.761 448.371 267.487C447.521 265.929 447.521 263.993 447.757 262.482C445.68 262.152 442.989 261.113 441.573 258.281C439.92 254.929 441.762 251.435 443.272 249.405C441.762 247.942 439.873 245.392 439.543 241.474C439.401 239.963 439.873 238.641 440.865 237.556C442.375 235.903 444.925 235.101 447.568 234.723C446.294 233.401 445.066 231.749 444.547 229.86C443.933 227.783 444.216 225.706 445.302 223.77C447.71 219.616 450.826 218.719 453.045 218.719C455.358 218.719 457.105 219.71 457.294 219.805C458.002 220.23 458.379 221.032 458.285 221.835C458.191 222.307 457.813 226.556 462.723 227.878C467.869 229.2 470.748 232.174 472.165 234.109L477.877 231.418C478.16 231.293 478.459 231.23 478.774 231.23C478.931 231.23 479.104 231.261 479.293 231.324C487.319 233.543 493.975 244.118 494.259 244.59C494.825 245.534 494.589 246.762 493.645 247.375L478.443 257.431C472.92 266.826 462.251 270.178 454.744 270.178Z" fill="#FDCF9E"/>
<path fill-rule="evenodd" clip-rule="evenodd" d="M458.285 218.058C459.748 218.861 460.504 220.513 460.268 222.118C460.22 222.59 460.032 225.045 463.289 225.895C467.916 227.122 470.937 229.53 472.778 231.607L477.027 229.577C477.594 229.341 478.16 229.2 478.774 229.2C479.12 229.2 479.482 229.247 479.86 229.341C488.452 231.796 495.25 242.324 495.958 243.504C497.138 245.393 496.619 247.847 494.778 249.028L479.954 258.847C473.911 268.714 462.723 272.208 454.744 272.208C453.422 272.208 452.242 272.113 451.251 271.877C449.221 271.452 447.568 270.225 446.577 268.478C445.821 267.062 445.585 265.504 445.585 264.04C442.989 263.191 440.912 261.491 439.779 259.178C437.985 255.637 439.212 252.096 440.676 249.594C439.165 247.706 437.796 245.062 437.513 241.616C437.324 239.586 437.985 237.697 439.401 236.139C440.471 234.975 441.997 234.078 443.98 233.449C443.367 232.504 442.894 231.513 442.564 230.427C441.809 227.831 442.186 225.187 443.555 222.732C446.577 217.492 450.778 216.689 453.045 216.689C455.83 216.689 457.907 217.822 458.285 218.058ZM447.049 224.762C443.414 231.182 453.281 236.47 453.281 236.47C453.281 236.47 452.761 236.47 452.006 236.47C448.89 236.47 441.195 236.895 441.573 241.285C441.997 246.809 446.152 249.122 446.152 249.122C446.152 249.122 441.573 253.701 443.414 257.384C444.877 260.311 448.371 260.594 449.74 260.594C450.07 260.594 450.306 260.594 450.306 260.594C450.306 260.594 447.993 267.015 452.1 267.912C452.761 268.1 453.658 268.148 454.744 268.148C460.551 268.148 471.504 265.646 476.933 256.015L492.512 245.676C492.512 245.676 486.091 235.337 478.774 233.26L471.409 236.706C471.409 236.706 469.096 231.655 462.203 229.813C455.358 227.972 456.255 221.552 456.255 221.552C456.255 221.552 454.886 220.749 453.045 220.749C451.203 220.749 448.89 221.552 447.049 224.762Z" fill="#282828"/>
<path d="M437.087 167.261C437.087 167.261 433.405 180.668 452.903 177.411L437.087 167.261Z" fill="#FDCF9E"/>
<path d="M438.646 167.685C438.551 167.969 438.457 168.441 438.362 168.818C438.299 169.228 438.252 169.637 438.221 170.046C438.221 170.896 438.315 171.745 438.551 172.501C439.023 174.059 440.204 175.333 441.761 176.136C443.367 176.986 445.255 177.363 447.143 177.505C449.032 177.647 450.967 177.599 452.903 177.411C451.015 177.836 449.126 178.213 447.143 178.308C445.161 178.449 443.131 178.355 441.148 177.647C440.156 177.316 439.165 176.797 438.315 176.089C437.465 175.381 436.757 174.436 436.285 173.445C435.813 172.406 435.53 171.321 435.388 170.188C435.325 169.653 435.309 169.102 435.341 168.535C435.341 167.969 435.388 167.497 435.53 166.836L438.646 167.685Z" fill="#282828"/>
<path d="M469.426 100.789C469.426 100.789 483.4 101.45 493.125 116.085C493.125 116.085 483.4 106.313 464.705 105.51L469.426 100.789Z" fill="#282828"/>
<path d="M513.85 141.673C513.85 141.673 514.653 135.961 506.533 127.84C506.533 127.84 513.567 140.021 510.073 146.535C510.073 146.535 513.85 145.733 513.85 141.673Z" fill="#282828"/>
<g opacity="0.4">
<path d="M532.215 93.283C528.58 90.0255 524.85 88.4204 521.357 87.9955C523.434 93.9439 524.331 101.12 519.941 106.313C515.692 111.317 522.018 115.944 530.799 116.888C530.736 116.856 530.657 116.809 530.563 116.746C530.563 116.746 543.687 103.669 532.215 93.283Z" fill="#B3B7BA"/>
</g>
<g style="mix-blend-mode:multiply" opacity="0.3">
<path d="M455.499 231.702C451.628 229.011 451.486 224.479 452.195 220.796C450.542 221.032 448.654 222.024 447.049 224.762C443.791 230.474 451.203 235.29 452.903 236.281C456.207 235.998 460.22 235.006 455.499 231.702Z" fill="#D49A72"/>
<path d="M451.156 246.101C449.504 244.448 445.349 243.221 441.62 241.899C442.328 246.95 446.152 249.122 446.152 249.122C446.152 249.122 446.01 249.264 445.727 249.547C449.079 249.264 453.516 248.461 451.156 246.101Z" fill="#D49A72"/>
<path d="M478.774 233.26L474.855 235.101C479.812 241.332 482.267 249.311 477.782 250.444C472.023 251.86 469.898 258.328 463.383 264.088C459.984 267.156 453.894 266.354 449.692 264.937C449.834 266.306 450.448 267.581 452.1 267.912C456.255 268.856 470.465 267.487 476.932 256.015L492.512 245.676C492.512 245.676 486.091 235.337 478.774 233.26Z" fill="#D49A72"/>
<path d="M443.177 256.817C443.24 257.006 443.319 257.195 443.413 257.384C445.254 261.066 450.306 260.594 450.306 260.594C450.306 260.594 450.211 260.736 450.164 261.019C453.563 259.556 456.207 256.912 456.207 256.912C456.207 256.912 448.842 257.762 443.177 256.817Z" fill="#D49A72"/>
</g>
<path d="M506.155 172.926C506.155 172.926 512.623 174.578 511.82 168.866C511.018 163.2 506.958 165.608 506.958 165.608C506.958 165.608 511.82 155.08 519.941 163.2" fill="#FDCF9E"/>
<path d="M506.156 172.926C507.477 172.973 508.846 172.831 509.838 172.265C510.829 171.698 511.065 170.754 510.924 169.621C510.782 168.535 510.357 167.213 509.791 166.694C509.507 166.411 509.224 166.316 508.847 166.316C508.469 166.316 507.902 166.505 507.572 166.694H507.525C506.958 167.024 506.203 166.836 505.872 166.269C505.683 165.891 505.683 165.467 505.825 165.136C506.533 163.72 507.383 162.587 508.469 161.501C509.555 160.509 510.924 159.613 512.529 159.376C514.087 159.093 515.739 159.424 516.919 160.273C517.25 160.415 517.533 160.651 517.816 160.887C518.1 161.107 518.367 161.344 518.619 161.595C519.091 162.13 519.532 162.665 519.941 163.2C519.327 162.823 518.761 162.492 518.194 162.115C517.911 161.989 517.612 161.847 517.297 161.69C517.014 161.548 516.731 161.406 516.4 161.359L515.55 161.076L514.653 160.982C514.323 160.934 514.04 161.029 513.756 161.029C513.473 161.029 513.237 161.123 512.954 161.218C511.868 161.595 510.924 162.256 510.121 163.153C509.319 164.003 508.563 165.089 508.044 166.127L506.297 164.57C506.769 164.333 507.1 164.192 507.525 164.097C507.95 164.003 508.374 163.909 508.847 163.909C509.791 163.909 510.829 164.381 511.443 165.089C512.057 165.797 512.387 166.6 512.576 167.308C512.765 168.063 512.812 168.771 512.812 169.574C512.812 170.329 512.67 171.132 512.198 171.887C511.773 172.642 511.018 173.114 510.263 173.351C508.799 173.728 507.383 173.445 506.156 172.926Z" fill="#282828"/>
<path d="M338.891 133.553C338.891 133.553 335.917 123.78 369.247 114.055C369.247 114.055 337.57 124.583 344.037 135.96C344.037 135.96 338.655 135.96 338.891 133.553Z" fill="#292B26"/>
<path d="M387.092 136.244C387.092 136.244 391.199 130.295 372.504 114.858C372.504 114.858 385.487 122.175 392.805 135.158C392.805 135.158 388.745 139.784 387.092 136.244Z" fill="#292B26"/>
<path d="M424.199 114.055C424.199 114.055 425.285 104.283 378.17 112.403C378.17 112.403 422.311 109.429 422.594 115.377C422.594 115.377 422.311 115.66 424.199 114.055Z" fill="#292B26"/>
<path d="M387.942 92.9054C387.942 92.9054 378.972 89.6479 371.702 111.6C371.702 111.6 374.11 92.1028 385.487 92.1028C396.865 92.1028 387.942 92.9054 387.942 92.9054Z" fill="#292B26"/>
<path d="M324.54 114.055C324.54 114.055 339.175 104.283 367.595 111.6C367.595 111.6 352.205 104.283 327.797 109.145C327.797 109.145 322.935 113.253 324.54 114.055Z" fill="#292B26"/>
<path d="M390.633 107.257C386.148 107.257 384.779 104.613 384.732 104.472C384.7 104.409 384.685 104.346 384.685 104.283C384.685 104.141 384.779 100.553 393.041 100.553C393.859 100.553 394.74 100.585 395.684 100.648C399.414 100.931 401.161 101.592 401.161 102.819C401.255 104.849 395.637 106.69 392.474 107.115C391.845 107.21 391.231 107.257 390.633 107.257Z" fill="#DB3100"/>
<path fill-rule="evenodd" clip-rule="evenodd" d="M393.041 100.931C393.828 100.931 394.693 100.962 395.637 101.025C406.212 101.875 398.092 105.935 392.38 106.738C391.75 106.832 391.168 106.879 390.633 106.879C386.384 106.879 385.062 104.283 385.062 104.283C385.062 104.283 385.062 100.931 393.041 100.931ZM393.041 100.128C384.496 100.128 384.26 103.858 384.26 104.283C384.26 104.409 384.291 104.535 384.354 104.66C384.401 104.802 385.912 107.682 390.633 107.682C391.231 107.682 391.861 107.635 392.521 107.54C395.732 107.068 401.68 105.227 401.586 102.772C401.539 101.309 399.745 100.553 395.685 100.223C394.74 100.16 393.859 100.128 393.041 100.128Z" fill="#282828"/>
<path d="M360.608 106.879C356.123 106.879 354.707 104.188 354.66 104.047C354.628 104.015 354.612 103.968 354.612 103.905C354.612 103.716 354.707 100.128 362.968 100.128C363.787 100.128 364.668 100.16 365.612 100.223C369.342 100.506 371.088 101.214 371.136 102.394C371.183 104.425 365.565 106.266 362.402 106.738C361.772 106.832 361.174 106.879 360.608 106.879Z" fill="#DB3100"/>
<path fill-rule="evenodd" clip-rule="evenodd" d="M362.969 100.553C363.755 100.522 364.621 100.553 365.565 100.648C376.14 101.45 368.02 105.51 362.355 106.313C361.725 106.407 361.143 106.454 360.608 106.454C356.312 106.454 355.037 103.905 355.037 103.905C355.037 103.905 355.037 100.553 362.969 100.553ZM362.969 99.7035C354.471 99.7035 354.235 103.48 354.235 103.905C354.235 104.031 354.251 104.141 354.282 104.236C354.376 104.377 355.84 107.257 360.608 107.257C361.206 107.257 361.82 107.21 362.449 107.115C365.66 106.691 371.608 104.802 371.514 102.394C371.466 100.931 369.672 100.128 365.66 99.8451C364.715 99.7507 363.818 99.7035 362.969 99.7035Z" fill="#282828"/>
<path d="M391.483 121.278C386.998 121.278 385.582 118.587 385.535 118.493C385.503 118.43 385.487 118.367 385.487 118.304C385.487 118.162 385.582 114.527 393.843 114.527C394.662 114.527 395.543 114.575 396.487 114.669C400.217 114.952 401.963 115.613 402.011 116.793C402.058 118.871 396.44 120.712 393.277 121.137C392.647 121.231 392.049 121.278 391.483 121.278Z" fill="#DB3100"/>
<path fill-rule="evenodd" clip-rule="evenodd" d="M393.843 114.952C394.63 114.952 395.496 114.984 396.44 115.047C407.015 115.849 398.895 119.956 393.23 120.759C392.569 120.853 391.987 120.885 391.483 120.853C387.187 120.853 385.912 118.304 385.912 118.304C385.912 118.304 385.912 114.952 393.843 114.952ZM393.843 114.15C385.346 114.15 385.062 117.879 385.062 118.304C385.062 118.43 385.094 118.556 385.157 118.682C385.251 118.776 386.715 121.703 391.483 121.703C392.05 121.703 392.663 121.656 393.324 121.562C396.534 121.089 402.483 119.248 402.388 116.793C402.341 115.33 400.547 114.575 396.534 114.244C395.559 114.181 394.662 114.15 393.843 114.15Z" fill="#282828"/>
<path d="M364.668 126.141C360.183 126.141 358.766 123.497 358.719 123.356C358.688 123.293 358.672 123.23 358.672 123.167C358.672 123.025 358.766 119.437 367.028 119.437C367.846 119.437 368.728 119.469 369.672 119.532C373.401 119.815 375.148 120.523 375.195 121.703C375.242 123.733 369.625 125.574 366.461 125.999C365.832 126.094 365.234 126.141 364.668 126.141Z" fill="#DB3100"/>
<path fill-rule="evenodd" clip-rule="evenodd" d="M367.028 119.815C367.815 119.815 368.696 119.862 369.672 119.956C380.2 120.759 372.08 124.819 366.415 125.622C365.785 125.716 365.203 125.763 364.668 125.763C360.372 125.763 359.097 123.167 359.097 123.167C359.097 123.167 359.097 119.815 367.028 119.815ZM367.028 119.012C358.53 119.012 358.294 122.742 358.294 123.167C358.294 123.293 358.31 123.418 358.342 123.544C358.436 123.686 359.9 126.566 364.668 126.566C365.266 126.566 365.879 126.519 366.509 126.424C369.719 125.952 375.668 124.111 375.573 121.656C375.526 120.24 373.732 119.437 369.719 119.107C368.775 119.044 367.878 119.012 367.028 119.012Z" fill="#282828"/>
<path d="M344.934 119.862C340.449 119.862 339.08 117.171 339.033 117.077C339.002 117.014 338.986 116.951 338.986 116.888C338.986 116.746 339.08 113.111 347.342 113.111C348.16 113.111 349.041 113.158 349.986 113.253C353.715 113.536 355.462 114.197 355.462 115.377C355.556 117.454 349.938 119.295 346.775 119.72C346.146 119.815 345.532 119.862 344.934 119.862Z" fill="#DB3100"/>
<path fill-rule="evenodd" clip-rule="evenodd" d="M347.342 113.536C348.129 113.536 348.994 113.567 349.939 113.63C360.514 114.433 352.393 118.493 346.681 119.343C346.052 119.406 345.469 119.437 344.934 119.437C340.685 119.437 339.364 116.888 339.364 116.888C339.364 116.888 339.364 113.536 347.342 113.536ZM347.342 112.733C338.797 112.733 338.561 116.463 338.561 116.888C338.561 117.014 338.592 117.14 338.655 117.266C338.703 117.36 340.213 120.287 344.934 120.287C345.532 120.287 346.162 120.24 346.823 120.145C350.033 119.673 355.981 117.785 355.887 115.377C355.84 113.914 354.046 113.158 350.033 112.828C349.057 112.765 348.16 112.733 347.342 112.733Z" fill="#282828"/>
<path d="M496.344 323.555L491.952 325.11L492.113 294.193L496.893 292.501L516.47 316.431L512.078 317.986L496.38 298.288L496.166 298.364L496.344 323.555ZM493.279 312.556L507.526 307.512L508.759 310.994L494.511 316.037L493.279 312.556Z" fill="#FCF132"/>
<path d="M392.653 315.789L404.767 289.34L414.194 293.658C416.252 294.6 417.785 295.755 418.794 297.124C419.802 298.492 420.345 299.98 420.421 301.587C420.501 303.186 420.171 304.795 419.429 306.414C418.684 308.041 417.674 309.349 416.398 310.337C415.135 311.321 413.65 311.881 411.942 312.015C410.248 312.145 408.376 311.741 406.327 310.802L399.844 307.833L401.393 304.45L407.515 307.253C408.815 307.849 409.972 308.108 410.986 308.031C412.005 307.945 412.883 307.597 413.62 306.987C414.358 306.377 414.955 305.573 415.413 304.574C415.87 303.575 416.087 302.602 416.063 301.654C416.039 300.705 415.719 299.824 415.102 299.01C414.494 298.201 413.527 297.492 412.201 296.885L407.19 294.59L396.644 317.617L392.653 315.789Z" fill="#FCF132"/>
<path d="M436.902 330.074L437.053 327.152L453.481 305.581L438.075 304.788L438.269 301.015L459.037 302.083L458.887 305.006L442.459 326.577L457.864 327.369L457.67 331.142L436.902 330.074Z" fill="#FCF132"/>
<path d="M466.936 330.94L466.522 328.044L478.499 303.718L463.228 305.901L462.694 302.16L483.28 299.218L483.694 302.115L471.717 326.441L486.988 324.258L487.522 327.999L466.936 330.94Z" fill="#FCF132"/>
<path d="M431.371 300.274L425.297 328.724L421.005 327.808L427.079 299.358L431.371 300.274Z" fill="#FCF132"/>
<path d="M866.802 350.418V351.462H863.31V363H862.05V351.462H858.54V350.418H866.802ZM881.086 350.58V363H879.826V353.082L875.398 363H874.48L870.052 353.118V363H868.792V350.58H870.124L874.93 361.344L879.736 350.58H881.086Z" fill="white"/>
</svg>
